<svg width="187" height="42" viewBox="0 0 187 42" fill="none" xmlns="http://www.w3.org/2000/svg">
<g clip-path="url(#clip0_1_57)">
<g filter="url(#filter0_d_1_57)">
<path d="M111.3 35.3H27.6L34.3 42L111.3 35.3Z" fill="#DE5C5C"/>
</g>
<g filter="url(#filter1_d_1_57)">
<path d="M35.4 8.4V9.4C33.8 8.4 32.5 7.8 30.5 7.8C24.6 7.8 20.2 13.1 20.2 19.7C20.2 26.3 24.7 31.6 30.5 31.6C32.4 31.6 33.8 31 35.4 30V31H40.5V8.4H35.4ZM30.5 26.2C27.6 26.2 25.5 23.4 25.5 19.8C25.5 16.2 27.6 13.4 30.5 13.4C33.4 13.4 35.4 16.2 35.4 19.8C35.5 23.3 33.4 26.2 30.5 26.2Z" fill="#DE5C5C"/>
</g>
<g filter="url(#filter2_d_1_57)">
<path d="M76.6 8.4V21.7C76.6 24.2 74.9 26.3 72.4 26.3C69.9 26.3 68.2 24.2 68.2 21.7V8.4H63V21.7C63 27.2 66.7 31.6 72.2 31.6C74.7 31.6 76.6 30.2 76.6 30.2V31H81.7V8.4H76.6Z" fill="#DE5C5C"/>
</g>
<g filter="url(#filter3_d_1_57)">
<path d="M124.6 31.1V17.7C124.6 15.2 126.3 13.1 128.8 13.1C131.3 13.1 133 15.2 133 17.7V31H138.2V17.7C138.2 12.2 134.5 7.8 129 7.8C126.5 7.8 124.6 9.2 124.6 9.2V8.4H119.5V31.1H124.6Z" fill="#DE5C5C"/>
</g>
<g filter="url(#filter4_d_1_57)">
<path d="M5.4 31.1V22.3H9.2L15.8 31.1H22.5L14.5 20.5C17 18.7 18.6 15.8 18.6 12.5C18.6 7.1 14.2 2.7 8.8 2.7H0V31H5.4V31.1ZM5.4 8.1H8.9C11.3 8.1 13.3 10.1 13.3 12.5C13.3 14.9 11.3 16.9 8.9 16.9H5.4V8.1Z" fill="#DE5C5C"/>
</g>
<g filter="url(#filter5_d_1_57)">
<path d="M95.7 25.7C95.2 26 94.7 26.3 94 26.3C93.2 26.3 91.6 25.7 91.6 23.5V13.8H96V8.4H91.6V2.7H86.5V8.4H83.8V13.8H86.5V23.6C86.5 28.7 90.3 31.7 94.2 31.7C95.6 31.7 97.6 31.2 99.2 30.3L95.7 25.7Z" fill="#DE5C5C"/>
</g>
<g filter="url(#filter6_d_1_57)">
<path d="M53.3 19L62.2 8.4H55L48.8 16.3V0.900002H43.5V31.1H48.8V21.8L56.4 31.1H63.6L53.3 19Z" fill="#DE5C5C"/>
</g>
<g filter="url(#filter7_d_1_57)">
<path d="M107.6 7.8C101.6 7.8 97.4 13 97.4 19.7C97.4 26.7 102.8 31.6 108.1 31.6C110.8 31.6 114.3 30.7 117.2 26.5L112.7 23.9C109.2 29.1 103.3 26.5 102.6 21.3H117.4C118.7 13.2 113.4 7.8 107.6 7.8ZM112.1 16.8H102.8C103.9 11.5 111.1 11.2 112.1 16.8Z" fill="#DE5C5C"/>
</g>
<g filter="url(#filter8_d_1_57)">
<path d="M162.1 10.7C162 9.8 162 9.4 162.7 9C163.2 8.7 165.7 7.2 170.4 5.8C171 5.6 171.5 5.7 171.8 6.1C172.1 6.5 172.2 7.1 172 7.6C171.6 8.6 171.5 9.4 171.9 9.8C172.3 10.1 172.7 10.2 173.9 9.6C175.5 8.8 177.3 6.7 177.2 3.3C177.2 2.1 176.7 1.2 175.9 0.600002C175.1 0.100002 174 -0.0999985 172.9 -0.0999985C169.9 -0.0999985 168.4 0.600001 164.5 2.1C159 4.1 152.1 6.3 148.3 7.3C146.7 7.7 145.4 8.8 145.4 10.4C145.4 12.9 148.4 13.6 150.5 12.9C150.9 12.8 155.2 11.2 156.7 11C156.9 11 157 11.1 157 11.2C157 11.4 157.1 13.6 157.2 14.5C157.4 18.6 157.7 26.6 157.7 27.1C157.8 28.2 157.8 31.5 159.6 31.5C161.3 31.5 162.1 29.7 162.5 27.1C163.1 23.4 162.6 18.2 162.4 14C162.3 13 162.1 10.7 162.1 10.7Z" fill="#DE5C5C"/>
</g>
<g filter="url(#filter9_d_1_57)">
<path d="M184.7 4.1C182.4 4.1 180.3 8.3 178.7 12C176.7 16.7 175.6 20.9 175 22.3C174.5 20.9 173.1 16.9 172.4 15.5C171.2 13 170 11.1 168.4 11.1C167.5 11.1 166.5 11.6 166.5 13.2C166.5 14.3 167 15.7 167.5 17C167.7 17.4 170.7 24.8 171.1 26.2C171.1 26.2 172.6 30.7 172.7 31.1C173.6 33.8 174.4 34.1 175 34.1C175.9 34.1 177.2 33.7 177.8 31C178.2 29.3 178.8 27.3 179.3 25.6C180.2 22.7 182.4 17.1 183.9 13.7C185.1 11 186.5 7.8 186.5 5.8C186.5 5.1 186.1 4.1 184.7 4.1Z" fill="#DE5C5C"/>
</g>
</g>
<defs>
<filter id="filter0_d_1_57" x="27.6" y="35.3" width="86.7" height="9.7" filterUnits="userSpaceOnUse" color-interpolation-filters="sRGB">
<feFlood flood-opacity="0" result="BackgroundImageFix"/>
<feColorMatrix in="SourceAlpha" type="matrix" values="0 0 0 0 0 0 0 0 0 0 0 0 0 0 0 0 0 0 127 0" result="hardAlpha"/>
<feOffset dx="2" dy="2"/>
<feGaussianBlur stdDeviation="0.5"/>
<feComposite in2="hardAlpha" operator="out"/>
<feColorMatrix type="matrix" values="0 0 0 0 0 0 0 0 0 0 0 0 0 0 0 0 0 0 0.24 0"/>
<feBlend mode="normal" in2="BackgroundImageFix" result="effect1_dropShadow_1_57"/>
<feBlend mode="normal" in="SourceGraphic" in2="effect1_dropShadow_1_57" result="shape"/>
</filter>
<filter id="filter1_d_1_57" x="20.2" y="7.8" width="23.3" height="26.8" filterUnits="userSpaceOnUse" color-interpolation-filters="sRGB">
<feFlood flood-opacity="0" result="BackgroundImageFix"/>
<feColorMatrix in="SourceAlpha" type="matrix" values="0 0 0 0 0 0 0 0 0 0 0 0 0 0 0 0 0 0 127 0" result="hardAlpha"/>
<feOffset dx="2" dy="2"/>
<feGaussianBlur stdDeviation="0.5"/>
<feComposite in2="hardAlpha" operator="out"/>
<feColorMatrix type="matrix" values="0 0 0 0 0 0 0 0 0 0 0 0 0 0 0 0 0 0 0.24 0"/>
<feBlend mode="normal" in2="BackgroundImageFix" result="effect1_dropShadow_1_57"/>
<feBlend mode="normal" in="SourceGraphic" in2="effect1_dropShadow_1_57" result="shape"/>
</filter>
<filter id="filter2_d_1_57" x="63" y="8.4" width="21.7" height="26.2" filterUnits="userSpaceOnUse" color-interpolation-filters="sRGB">
<feFlood flood-opacity="0" result="BackgroundImageFix"/>
<feColorMatrix in="SourceAlpha" type="matrix" values="0 0 0 0 0 0 0 0 0 0 0 0 0 0 0 0 0 0 127 0" result="hardAlpha"/>
<feOffset dx="2" dy="2"/>
<feGaussianBlur stdDeviation="0.5"/>
<feComposite in2="hardAlpha" operator="out"/>
<feColorMatrix type="matrix" values="0 0 0 0 0 0 0 0 0 0 0 0 0 0 0 0 0 0 0.24 0"/>
<feBlend mode="normal" in2="BackgroundImageFix" result="effect1_dropShadow_1_57"/>
<feBlend mode="normal" in="SourceGraphic" in2="effect1_dropShadow_1_57" result="shape"/>
</filter>
<filter id="filter3_d_1_57" x="119.5" y="7.8" width="21.7" height="26.3" filterUnits="userSpaceOnUse" color-interpolation-filters="sRGB">
<feFlood flood-opacity="0" result="BackgroundImageFix"/>
<feColorMatrix in="SourceAlpha" type="matrix" values="0 0 0 0 0 0 0 0 0 0 0 0 0 0 0 0 0 0 127 0" result="hardAlpha"/>
<feOffset dx="2" dy="2"/>
<feGaussianBlur stdDeviation="0.5"/>
<feComposite in2="hardAlpha" operator="out"/>
<feColorMatrix type="matrix" values="0 0 0 0 0 0 0 0 0 0 0 0 0 0 0 0 0 0 0.24 0"/>
<feBlend mode="normal" in2="BackgroundImageFix" result="effect1_dropShadow_1_57"/>
<feBlend mode="normal" in="SourceGraphic" in2="effect1_dropShadow_1_57" result="shape"/>
</filter>
<filter id="filter4_d_1_57" x="0" y="2.7" width="25.5" height="31.4" filterUnits="userSpaceOnUse" color-interpolation-filters="sRGB">
<feFlood flood-opacity="0" result="BackgroundImageFix"/>
<feColorMatrix in="SourceAlpha" type="matrix" values="0 0 0 0 0 0 0 0 0 0 0 0 0 0 0 0 0 0 127 0" result="hardAlpha"/>
<feOffset dx="2" dy="2"/>
<feGaussianBlur stdDeviation="0.5"/>
<feComposite in2="hardAlpha" operator="out"/>
<feColorMatrix type="matrix" values="0 0 0 0 0 0 0 0 0 0 0 0 0 0 0 0 0 0 0.24 0"/>
<feBlend mode="normal" in2="BackgroundImageFix" result="effect1_dropShadow_1_57"/>
<feBlend mode="normal" in="SourceGraphic" in2="effect1_dropShadow_1_57" result="shape"/>
</filter>
<filter id="filter5_d_1_57" x="83.8" y="2.7" width="18.4" height="32" filterUnits="userSpaceOnUse" color-interpolation-filters="sRGB">
<feFlood flood-opacity="0" result="BackgroundImageFix"/>
<feColorMatrix in="SourceAlpha" type="matrix" values="0 0 0 0 0 0 0 0 0 0 0 0 0 0 0 0 0 0 127 0" result="hardAlpha"/>
<feOffset dx="2" dy="2"/>
<feGaussianBlur stdDeviation="0.5"/>
<feComposite in2="hardAlpha" operator="out"/>
<feColorMatrix type="matrix" values="0 0 0 0 0 0 0 0 0 0 0 0 0 0 0 0 0 0 0.24 0"/>
<feBlend mode="normal" in2="BackgroundImageFix" result="effect1_dropShadow_1_57"/>
<feBlend mode="normal" in="SourceGraphic" in2="effect1_dropShadow_1_57" result="shape"/>
</filter>
<filter id="filter6_d_1_57" x="43.5" y="0.900002" width="23.1" height="33.2" filterUnits="userSpaceOnUse" color-interpolation-filters="sRGB">
<feFlood flood-opacity="0" result="BackgroundImageFix"/>
<feColorMatrix in="SourceAlpha" type="matrix" values="0 0 0 0 0 0 0 0 0 0 0 0 0 0 0 0 0 0 127 0" result="hardAlpha"/>
<feOffset dx="2" dy="2"/>
<feGaussianBlur stdDeviation="0.5"/>
<feComposite in2="hardAlpha" operator="out"/>
<feColorMatrix type="matrix" values="0 0 0 0 0 0 0 0 0 0 0 0 0 0 0 0 0 0 0.24 0"/>
<feBlend mode="normal" in2="BackgroundImageFix" result="effect1_dropShadow_1_57"/>
<feBlend mode="normal" in="SourceGraphic" in2="effect1_dropShadow_1_57" result="shape"/>
</filter>
<filter id="filter7_d_1_57" x="97.4" y="7.8" width="23.1983" height="26.8" filterUnits="userSpaceOnUse" color-interpolation-filters="sRGB">
<feFlood flood-opacity="0" result="BackgroundImageFix"/>
<feColorMatrix in="SourceAlpha" type="matrix" values="0 0 0 0 0 0 0 0 0 0 0 0 0 0 0 0 0 0 127 0" result="hardAlpha"/>
<feOffset dx="2" dy="2"/>
<feGaussianBlur stdDeviation="0.5"/>
<feComposite in2="hardAlpha" operator="out"/>
<feColorMatrix type="matrix" values="0 0 0 0 0 0 0 0 0 0 0 0 0 0 0 0 0 0 0.24 0"/>
<feBlend mode="normal" in2="BackgroundImageFix" result="effect1_dropShadow_1_57"/>
<feBlend mode="normal" in="SourceGraphic" in2="effect1_dropShadow_1_57" result="shape"/>
</filter>
<filter id="filter8_d_1_57" x="145.4" y="-0.0999985" width="34.804" height="34.6" filterUnits="userSpaceOnUse" color-interpolation-filters="sRGB">
<feFlood flood-opacity="0" result="BackgroundImageFix"/>
<feColorMatrix in="SourceAlpha" type="matrix" values="0 0 0 0 0 0 0 0 0 0 0 0 0 0 0 0 0 0 127 0" result="hardAlpha"/>
<feOffset dx="2" dy="2"/>
<feGaussianBlur stdDeviation="0.5"/>
<feComposite in2="hardAlpha" operator="out"/>
<feColorMatrix type="matrix" values="0 0 0 0 0 0 0 0 0 0 0 0 0 0 0 0 0 0 0.24 0"/>
<feBlend mode="normal" in2="BackgroundImageFix" result="effect1_dropShadow_1_57"/>
<feBlend mode="normal" in="SourceGraphic" in2="effect1_dropShadow_1_57" result="shape"/>
</filter>
<filter id="filter9_d_1_57" x="166.5" y="4.1" width="23" height="33" filterUnits="userSpaceOnUse" color-interpolation-filters="sRGB">
<feFlood flood-opacity="0" result="BackgroundImageFix"/>
<feColorMatrix in="SourceAlpha" type="matrix" values="0 0 0 0 0 0 0 0 0 0 0 0 0 0 0 0 0 0 127 0" result="hardAlpha"/>
<feOffset dx="2" dy="2"/>
<feGaussianBlur stdDeviation="0.5"/>
<feComposite in2="hardAlpha" operator="out"/>
<feColorMatrix type="matrix" values="0 0 0 0 0 0 0 0 0 0 0 0 0 0 0 0 0 0 0.24 0"/>
<feBlend mode="normal" in2="BackgroundImageFix" result="effect1_dropShadow_1_57"/>
<feBlend mode="normal" in="SourceGraphic" in2="effect1_dropShadow_1_57" result="shape"/>
</filter>
<clipPath id="clip0_1_57">
<rect width="186.5" height="42" fill="white"/>
</clipPath>
</defs>
</svg>
