<svg width="130" height="29" viewBox="0 0 130 29" fill="none" xmlns="http://www.w3.org/2000/svg">
<g clip-path="url(#clip0_1_57)">
<g filter="url(#filter0_d_1_57)">
<path d="M77.5818 24.3738H19.2386L23.9089 29L77.5818 24.3738Z" fill="#DE5C5C"/>
</g>
<g filter="url(#filter1_d_1_57)">
<path d="M24.6756 5.8V6.49047C23.5603 5.8 22.6542 5.38571 21.2601 5.38571C17.1475 5.38571 14.0804 9.04524 14.0804 13.6024C14.0804 18.1595 17.2172 21.819 21.2601 21.819C22.5845 21.819 23.5603 21.4048 24.6756 20.7143V21.4048H28.2306V5.8H24.6756ZM21.2601 18.0905C19.2386 18.0905 17.7748 16.1571 17.7748 13.6714C17.7748 11.1857 19.2386 9.25238 21.2601 9.25238C23.2815 9.25238 24.6756 11.1857 24.6756 13.6714C24.7453 16.0881 23.2815 18.0905 21.2601 18.0905Z" fill="#DE5C5C"/>
</g>
<g filter="url(#filter2_d_1_57)">
<path d="M53.3941 5.8V14.9833C53.3941 16.7095 52.2091 18.1595 50.4665 18.1595C48.7239 18.1595 47.5389 16.7095 47.5389 14.9833V5.8H43.9142V14.9833C43.9142 18.781 46.4933 21.819 50.3271 21.819C52.0697 21.819 53.3941 20.8524 53.3941 20.8524V21.4048H56.9491V5.8H53.3941Z" fill="#DE5C5C"/>
</g>
<g filter="url(#filter3_d_1_57)">
<path d="M86.8525 21.4738V12.2214C86.8525 10.4952 88.0375 9.04524 89.7802 9.04524C91.5228 9.04524 92.7078 10.4952 92.7078 12.2214V21.4048H96.3324V12.2214C96.3324 8.42381 93.7533 5.38571 89.9196 5.38571C88.1769 5.38571 86.8525 6.35238 86.8525 6.35238V5.8H83.2976V21.4738H86.8525Z" fill="#DE5C5C"/>
</g>
<g filter="url(#filter4_d_1_57)">
<path d="M3.76408 21.4738V15.3976H6.41287L11.0134 21.4738H15.6836L10.1072 14.1548C11.8499 12.9119 12.9651 10.9095 12.9651 8.63096C12.9651 4.90238 9.89812 1.86429 6.13405 1.86429H0V21.4048H3.76408V21.4738ZM3.76408 5.59286H6.20375C7.87668 5.59286 9.27078 6.97381 9.27078 8.63096C9.27078 10.2881 7.87668 11.669 6.20375 11.669H3.76408V5.59286Z" fill="#DE5C5C"/>
</g>
<g filter="url(#filter5_d_1_57)">
<path d="M66.7078 17.7452C66.3592 17.9524 66.0107 18.1595 65.5228 18.1595C64.9651 18.1595 63.8499 17.7452 63.8499 16.2262V9.52857H66.9169V5.8H63.8499V1.86429H60.2949V5.8H58.4129V9.52857H60.2949V16.2952C60.2949 19.8167 62.9437 21.8881 65.6622 21.8881C66.6381 21.8881 68.0322 21.5429 69.1475 20.9214L66.7078 17.7452Z" fill="#DE5C5C"/>
</g>
<g filter="url(#filter6_d_1_57)">
<path d="M37.1528 13.119L43.3566 5.8H38.3378L34.0161 11.2548V0.621429H30.3217V21.4738H34.0161V15.0524L39.3137 21.4738H44.3324L37.1528 13.119Z" fill="#DE5C5C"/>
</g>
<g filter="url(#filter7_d_1_57)">
<path d="M75.0027 5.38571C70.8204 5.38571 67.8928 8.97619 67.8928 13.6024C67.8928 18.4357 71.6568 21.819 75.3512 21.819C77.2332 21.819 79.6729 21.1976 81.6944 18.2976L78.5576 16.5024C76.118 20.0929 72.0054 18.2976 71.5174 14.7071H81.8338C82.7399 9.11428 79.0456 5.38571 75.0027 5.38571ZM78.1394 11.6H71.6568C72.4236 7.94047 77.4424 7.73333 78.1394 11.6Z" fill="#DE5C5C"/>
</g>
<g filter="url(#filter8_d_1_57)">
<path d="M112.992 7.3881C112.922 6.76667 112.922 6.49048 113.41 6.21429C113.759 6.00714 115.501 4.97143 118.777 4.00476C119.196 3.86667 119.544 3.93572 119.753 4.21191C119.962 4.4881 120.032 4.90238 119.893 5.24762C119.614 5.9381 119.544 6.49048 119.823 6.76667C120.102 6.97381 120.381 7.04286 121.217 6.62857C122.332 6.07619 123.587 4.62619 123.517 2.27857C123.517 1.45 123.169 0.828573 122.611 0.414287C122.054 0.0690492 121.287 -0.069046 120.52 -0.069046C118.429 -0.069046 117.383 0.414287 114.665 1.45C110.831 2.83095 106.021 4.35 103.373 5.04048C102.257 5.31667 101.351 6.07619 101.351 7.18095C101.351 8.90714 103.442 9.39048 104.906 8.90714C105.185 8.8381 108.182 7.73334 109.228 7.59524C109.367 7.59524 109.437 7.66429 109.437 7.73333C109.437 7.87143 109.507 9.39048 109.576 10.0119C109.716 12.8429 109.925 18.3667 109.925 18.7119C109.995 19.4714 109.995 21.75 111.249 21.75C112.434 21.75 112.992 20.5071 113.271 18.7119C113.689 16.1571 113.34 12.5667 113.201 9.66667C113.131 8.97619 112.992 7.3881 112.992 7.3881Z" fill="#DE5C5C"/>
</g>
<g filter="url(#filter9_d_1_57)">
<path d="M128.745 2.83096C127.142 2.83096 125.678 5.73096 124.563 8.28572C123.169 11.531 122.402 14.431 121.984 15.3976C121.635 14.431 120.66 11.6691 120.172 10.7024C119.335 8.97619 118.499 7.66429 117.383 7.66429C116.756 7.66429 116.059 8.00953 116.059 9.11429C116.059 9.87381 116.408 10.8405 116.756 11.7381C116.895 12.0143 118.987 17.1238 119.265 18.0905C119.265 18.0905 120.311 21.1976 120.381 21.4738C121.008 23.3381 121.566 23.5452 121.984 23.5452C122.611 23.5452 123.517 23.2691 123.936 21.4048C124.214 20.231 124.633 18.85 124.981 17.6762C125.609 15.6738 127.142 11.8071 128.188 9.45953C129.024 7.59524 130 5.38572 130 4.00477C130 3.52143 129.721 2.83096 128.745 2.83096Z" fill="#DE5C5C"/>
</g>
</g>
<defs>
<filter id="filter0_d_1_57" x="19.2386" y="24.3738" width="61.3432" height="7.62619" filterUnits="userSpaceOnUse" color-interpolation-filters="sRGB">
<feFlood flood-opacity="0" result="BackgroundImageFix"/>
<feColorMatrix in="SourceAlpha" type="matrix" values="0 0 0 0 0 0 0 0 0 0 0 0 0 0 0 0 0 0 127 0" result="hardAlpha"/>
<feOffset dx="2" dy="2"/>
<feGaussianBlur stdDeviation="0.5"/>
<feComposite in2="hardAlpha" operator="out"/>
<feColorMatrix type="matrix" values="0 0 0 0 0 0 0 0 0 0 0 0 0 0 0 0 0 0 0.24 0"/>
<feBlend mode="normal" in2="BackgroundImageFix" result="effect1_dropShadow_1_57"/>
<feBlend mode="normal" in="SourceGraphic" in2="effect1_dropShadow_1_57" result="shape"/>
</filter>
<filter id="filter1_d_1_57" x="14.0804" y="5.38571" width="17.1501" height="19.4333" filterUnits="userSpaceOnUse" color-interpolation-filters="sRGB">
<feFlood flood-opacity="0" result="BackgroundImageFix"/>
<feColorMatrix in="SourceAlpha" type="matrix" values="0 0 0 0 0 0 0 0 0 0 0 0 0 0 0 0 0 0 127 0" result="hardAlpha"/>
<feOffset dx="2" dy="2"/>
<feGaussianBlur stdDeviation="0.5"/>
<feComposite in2="hardAlpha" operator="out"/>
<feColorMatrix type="matrix" values="0 0 0 0 0 0 0 0 0 0 0 0 0 0 0 0 0 0 0.24 0"/>
<feBlend mode="normal" in2="BackgroundImageFix" result="effect1_dropShadow_1_57"/>
<feBlend mode="normal" in="SourceGraphic" in2="effect1_dropShadow_1_57" result="shape"/>
</filter>
<filter id="filter2_d_1_57" x="43.9142" y="5.8" width="16.0349" height="19.019" filterUnits="userSpaceOnUse" color-interpolation-filters="sRGB">
<feFlood flood-opacity="0" result="BackgroundImageFix"/>
<feColorMatrix in="SourceAlpha" type="matrix" values="0 0 0 0 0 0 0 0 0 0 0 0 0 0 0 0 0 0 127 0" result="hardAlpha"/>
<feOffset dx="2" dy="2"/>
<feGaussianBlur stdDeviation="0.5"/>
<feComposite in2="hardAlpha" operator="out"/>
<feColorMatrix type="matrix" values="0 0 0 0 0 0 0 0 0 0 0 0 0 0 0 0 0 0 0.24 0"/>
<feBlend mode="normal" in2="BackgroundImageFix" result="effect1_dropShadow_1_57"/>
<feBlend mode="normal" in="SourceGraphic" in2="effect1_dropShadow_1_57" result="shape"/>
</filter>
<filter id="filter3_d_1_57" x="83.2976" y="5.38571" width="16.0349" height="19.0881" filterUnits="userSpaceOnUse" color-interpolation-filters="sRGB">
<feFlood flood-opacity="0" result="BackgroundImageFix"/>
<feColorMatrix in="SourceAlpha" type="matrix" values="0 0 0 0 0 0 0 0 0 0 0 0 0 0 0 0 0 0 127 0" result="hardAlpha"/>
<feOffset dx="2" dy="2"/>
<feGaussianBlur stdDeviation="0.5"/>
<feComposite in2="hardAlpha" operator="out"/>
<feColorMatrix type="matrix" values="0 0 0 0 0 0 0 0 0 0 0 0 0 0 0 0 0 0 0.24 0"/>
<feBlend mode="normal" in2="BackgroundImageFix" result="effect1_dropShadow_1_57"/>
<feBlend mode="normal" in="SourceGraphic" in2="effect1_dropShadow_1_57" result="shape"/>
</filter>
<filter id="filter4_d_1_57" x="0" y="1.86429" width="18.6837" height="22.6095" filterUnits="userSpaceOnUse" color-interpolation-filters="sRGB">
<feFlood flood-opacity="0" result="BackgroundImageFix"/>
<feColorMatrix in="SourceAlpha" type="matrix" values="0 0 0 0 0 0 0 0 0 0 0 0 0 0 0 0 0 0 127 0" result="hardAlpha"/>
<feOffset dx="2" dy="2"/>
<feGaussianBlur stdDeviation="0.5"/>
<feComposite in2="hardAlpha" operator="out"/>
<feColorMatrix type="matrix" values="0 0 0 0 0 0 0 0 0 0 0 0 0 0 0 0 0 0 0.24 0"/>
<feBlend mode="normal" in2="BackgroundImageFix" result="effect1_dropShadow_1_57"/>
<feBlend mode="normal" in="SourceGraphic" in2="effect1_dropShadow_1_57" result="shape"/>
</filter>
<filter id="filter5_d_1_57" x="58.4129" y="1.86429" width="13.7346" height="23.0238" filterUnits="userSpaceOnUse" color-interpolation-filters="sRGB">
<feFlood flood-opacity="0" result="BackgroundImageFix"/>
<feColorMatrix in="SourceAlpha" type="matrix" values="0 0 0 0 0 0 0 0 0 0 0 0 0 0 0 0 0 0 127 0" result="hardAlpha"/>
<feOffset dx="2" dy="2"/>
<feGaussianBlur stdDeviation="0.5"/>
<feComposite in2="hardAlpha" operator="out"/>
<feColorMatrix type="matrix" values="0 0 0 0 0 0 0 0 0 0 0 0 0 0 0 0 0 0 0.24 0"/>
<feBlend mode="normal" in2="BackgroundImageFix" result="effect1_dropShadow_1_57"/>
<feBlend mode="normal" in="SourceGraphic" in2="effect1_dropShadow_1_57" result="shape"/>
</filter>
<filter id="filter6_d_1_57" x="30.3217" y="0.621429" width="17.0107" height="23.8524" filterUnits="userSpaceOnUse" color-interpolation-filters="sRGB">
<feFlood flood-opacity="0" result="BackgroundImageFix"/>
<feColorMatrix in="SourceAlpha" type="matrix" values="0 0 0 0 0 0 0 0 0 0 0 0 0 0 0 0 0 0 127 0" result="hardAlpha"/>
<feOffset dx="2" dy="2"/>
<feGaussianBlur stdDeviation="0.5"/>
<feComposite in2="hardAlpha" operator="out"/>
<feColorMatrix type="matrix" values="0 0 0 0 0 0 0 0 0 0 0 0 0 0 0 0 0 0 0.24 0"/>
<feBlend mode="normal" in2="BackgroundImageFix" result="effect1_dropShadow_1_57"/>
<feBlend mode="normal" in="SourceGraphic" in2="effect1_dropShadow_1_57" result="shape"/>
</filter>
<filter id="filter7_d_1_57" x="67.8928" y="5.38571" width="17.0793" height="19.4333" filterUnits="userSpaceOnUse" color-interpolation-filters="sRGB">
<feFlood flood-opacity="0" result="BackgroundImageFix"/>
<feColorMatrix in="SourceAlpha" type="matrix" values="0 0 0 0 0 0 0 0 0 0 0 0 0 0 0 0 0 0 127 0" result="hardAlpha"/>
<feOffset dx="2" dy="2"/>
<feGaussianBlur stdDeviation="0.5"/>
<feComposite in2="hardAlpha" operator="out"/>
<feColorMatrix type="matrix" values="0 0 0 0 0 0 0 0 0 0 0 0 0 0 0 0 0 0 0.24 0"/>
<feBlend mode="normal" in2="BackgroundImageFix" result="effect1_dropShadow_1_57"/>
<feBlend mode="normal" in="SourceGraphic" in2="effect1_dropShadow_1_57" result="shape"/>
</filter>
<filter id="filter8_d_1_57" x="101.351" y="-0.069046" width="25.169" height="24.819" filterUnits="userSpaceOnUse" color-interpolation-filters="sRGB">
<feFlood flood-opacity="0" result="BackgroundImageFix"/>
<feColorMatrix in="SourceAlpha" type="matrix" values="0 0 0 0 0 0 0 0 0 0 0 0 0 0 0 0 0 0 127 0" result="hardAlpha"/>
<feOffset dx="2" dy="2"/>
<feGaussianBlur stdDeviation="0.5"/>
<feComposite in2="hardAlpha" operator="out"/>
<feColorMatrix type="matrix" values="0 0 0 0 0 0 0 0 0 0 0 0 0 0 0 0 0 0 0.24 0"/>
<feBlend mode="normal" in2="BackgroundImageFix" result="effect1_dropShadow_1_57"/>
<feBlend mode="normal" in="SourceGraphic" in2="effect1_dropShadow_1_57" result="shape"/>
</filter>
<filter id="filter9_d_1_57" x="116.059" y="2.83096" width="16.941" height="23.7143" filterUnits="userSpaceOnUse" color-interpolation-filters="sRGB">
<feFlood flood-opacity="0" result="BackgroundImageFix"/>
<feColorMatrix in="SourceAlpha" type="matrix" values="0 0 0 0 0 0 0 0 0 0 0 0 0 0 0 0 0 0 127 0" result="hardAlpha"/>
<feOffset dx="2" dy="2"/>
<feGaussianBlur stdDeviation="0.5"/>
<feComposite in2="hardAlpha" operator="out"/>
<feColorMatrix type="matrix" values="0 0 0 0 0 0 0 0 0 0 0 0 0 0 0 0 0 0 0.24 0"/>
<feBlend mode="normal" in2="BackgroundImageFix" result="effect1_dropShadow_1_57"/>
<feBlend mode="normal" in="SourceGraphic" in2="effect1_dropShadow_1_57" result="shape"/>
</filter>
<clipPath id="clip0_1_57">
<rect width="130" height="29" fill="white"/>
</clipPath>
</defs>
</svg>
