<?xml version="1.0" standalone="no"?>
<!DOCTYPE svg PUBLIC "-//W3C//DTD SVG 20010904//EN"
 "http://www.w3.org/TR/2001/REC-SVG-20010904/DTD/svg10.dtd">
<svg version="1.0" xmlns="http://www.w3.org/2000/svg"
 width="700.000000pt" height="700.000000pt" viewBox="0 0 700.000000 700.000000"
 preserveAspectRatio="xMidYMid meet">
<metadata>
Created by potrace 1.14, written by Peter Selinger 2001-2017
</metadata>
<g transform="translate(0.000000,700.000000) scale(0.100000,-0.100000)"
fill="#000000" stroke="none">
<path d="M1890 6758 c-34 -18 -51 -35 -73 -78 -33 -61 -33 -59 -7 -490 5 -91
10 -225 11 -297 2 -131 1 -133 -27 -175 -34 -52 -42 -135 -25 -273 10 -79 9
-92 -8 -130 -11 -24 -28 -46 -39 -49 -11 -4 -67 -2 -123 4 -108 11 -155 4
-191 -28 -21 -18 -22 -32 -6 -67 16 -35 57 -55 113 -55 52 0 80 -11 89 -36 5
-12 -10 -32 -51 -70 -32 -30 -65 -61 -74 -69 -9 -9 -20 -30 -23 -48 -4 -17
-18 -48 -31 -69 -14 -20 -29 -59 -35 -85 -6 -26 -21 -79 -34 -118 -16 -46 -28
-119 -37 -212 -13 -152 -14 -145 34 -293 8 -25 20 -76 25 -115 8 -50 17 -75
32 -87 46 -37 13 -80 -83 -109 -40 -12 -84 -30 -98 -40 l-26 -18 -17 57 c-10
31 -28 73 -41 92 -25 37 -41 104 -50 210 -9 99 -12 108 -52 135 -50 33 -61 32
-79 -11 -18 -42 -8 -108 27 -175 11 -23 27 -75 35 -117 8 -42 21 -85 29 -97 8
-11 21 -29 29 -40 8 -11 16 -45 19 -75 4 -50 2 -56 -25 -81 -73 -67 -128 -127
-128 -139 0 -6 -11 -15 -25 -20 -14 -5 -29 -20 -34 -34 -6 -13 -23 -33 -40
-45 -21 -15 -31 -31 -33 -54 -2 -25 -8 -33 -26 -35 -13 -2 -21 -9 -19 -15 3
-7 11 -11 18 -9 8 1 5 -5 -6 -14 -16 -13 -16 -15 -3 -11 10 3 20 2 23 -3 3 -5
12 -7 20 -3 8 3 15 0 15 -6 0 -6 16 -11 35 -11 28 0 37 -5 44 -23 17 -43 36
-50 160 -55 101 -4 122 -2 145 13 50 33 263 29 329 -6 22 -12 32 8 24 49 -24
128 -50 242 -68 290 -32 88 -38 112 -49 181 -14 82 -5 93 66 90 81 -4 106 27
59 71 -13 12 -32 45 -41 72 -9 27 -27 61 -40 77 -19 23 -26 50 -39 145 -19
146 -19 244 0 369 14 96 15 98 64 148 43 44 54 50 93 51 25 0 64 -9 91 -21 77
-35 149 -44 312 -38 129 4 160 9 219 31 120 46 179 29 244 -69 49 -75 54 -108
50 -309 l-4 -181 -32 -61 c-18 -34 -32 -71 -32 -82 0 -12 -13 -36 -28 -54 -16
-18 -38 -49 -50 -68 -34 -56 -154 -150 -192 -150 -6 0 -29 -12 -52 -27 -39
-27 -48 -28 -158 -28 -113 0 -118 1 -159 29 -36 25 -45 27 -66 18 -14 -7 -28
-18 -31 -26 -3 -8 4 -85 15 -172 43 -331 61 -398 113 -435 39 -28 91 -135 85
-174 -7 -42 -71 -193 -99 -233 -53 -75 -55 -77 -70 -64 -8 6 -50 18 -93 27
-57 11 -89 23 -114 43 -20 16 -46 34 -59 41 -25 13 -36 37 -58 116 -11 42 -11
60 2 121 16 78 12 100 -18 110 -30 9 -123 -86 -138 -143 -7 -23 -23 -57 -36
-74 -13 -18 -26 -51 -30 -75 -3 -24 -19 -63 -34 -86 -16 -24 -34 -71 -41 -106
-6 -35 -23 -80 -37 -100 -15 -23 -29 -66 -38 -117 -8 -46 -23 -92 -35 -108
-19 -27 -26 -54 -48 -194 -5 -34 -19 -75 -31 -91 -26 -35 -37 -80 -46 -196 -6
-82 -9 -92 -40 -125 -18 -20 -36 -49 -39 -64 -9 -34 -19 -34 -51 -2 -18 18
-23 31 -19 43 12 26 23 114 34 262 6 79 18 160 30 196 10 34 24 110 30 169 8
75 17 119 31 142 13 22 24 68 31 131 7 70 17 108 35 139 19 33 25 61 30 142 7
99 7 100 -17 109 -13 5 -85 12 -159 16 -74 4 -149 9 -165 12 l-31 5 -11 -106
c-8 -81 -17 -118 -38 -158 -25 -49 -28 -63 -35 -241 -10 -222 -25 -348 -51
-431 -14 -45 -23 -130 -35 -330 -17 -288 -18 -312 -8 -390 9 -66 17 -85 53
-126 17 -19 39 -43 49 -54 10 -11 33 -28 51 -37 27 -15 30 -20 21 -38 -18 -34
-43 -39 -224 -46 -97 -4 -176 -11 -176 -15 0 -4 5 -20 10 -35 9 -22 7 -36 -10
-70 -16 -35 -20 -64 -20 -147 0 -138 6 -143 145 -151 350 -20 352 -20 380 8
24 24 25 30 25 140 0 64 -5 135 -12 159 -20 77 17 133 62 92 31 -28 33 -60 5
-101 -23 -34 -25 -46 -25 -145 0 -104 1 -108 26 -128 36 -29 162 -30 216 -2
36 18 37 18 65 -1 25 -17 46 -19 188 -17 101 1 170 -2 188 -10 16 -6 64 -11
107 -11 70 0 82 3 109 26 l31 26 0 119 c0 91 -4 128 -16 151 -13 26 -14 38 -5
70 16 52 49 50 69 -4 13 -35 13 -38 -12 -71 -25 -32 -26 -40 -26 -148 l0 -115
28 -17 c25 -14 63 -16 297 -16 249 0 270 2 296 20 l27 19 33 -31 34 -32 120 8
c66 4 185 10 265 13 196 9 190 5 190 151 0 98 -3 118 -21 148 -27 43 -19 99
15 114 30 14 65 -3 67 -31 1 -11 2 -26 4 -32 1 -7 -7 -28 -17 -46 -14 -27 -18
-55 -18 -148 0 -149 4 -153 135 -153 57 0 99 5 115 13 22 12 28 11 59 -10 33
-22 46 -24 153 -24 111 0 118 1 148 27 31 25 32 26 66 10 47 -23 175 -23 209
-1 24 16 25 20 25 138 -1 86 -5 128 -15 146 -8 14 -14 44 -15 68 l0 43 -97 -3
-98 -3 3 -38 c3 -29 -2 -44 -22 -68 l-26 -30 -11 28 c-6 15 -11 47 -10 69 2
39 0 42 -30 48 -17 3 -72 6 -121 6 -93 0 -121 8 -138 40 -9 16 -3 23 45 50 36
20 63 45 76 68 11 21 31 52 44 71 24 33 25 40 25 185 -1 227 -16 397 -45 510
-21 82 -27 141 -36 330 -10 202 -14 238 -34 286 -28 67 -42 141 -50 277 -4 56
-10 102 -14 101 -3 0 -8 1 -11 2 -43 16 -131 18 -312 5 -105 -7 -108 -8 -108
-31 0 -13 6 -24 13 -24 31 0 45 -35 52 -133 5 -68 11 -100 21 -104 18 -7 31
-53 43 -153 5 -47 19 -105 30 -130 12 -27 24 -89 31 -153 6 -59 20 -136 31
-170 21 -66 38 -330 25 -398 -11 -57 -20 -65 -47 -40 -12 11 -28 21 -35 21
-13 0 -18 25 -29 150 -8 85 -22 138 -47 173 -13 19 -25 62 -34 130 -10 70 -22
114 -39 143 -13 22 -29 72 -35 110 -6 38 -24 94 -40 126 -16 32 -33 77 -36
100 -3 24 -19 66 -34 93 -15 28 -35 79 -44 114 -9 35 -27 76 -40 91 -13 16
-26 47 -30 70 -4 25 -18 53 -36 73 -17 18 -41 45 -54 62 -20 25 -27 28 -47 19
-23 -11 -24 -14 -24 -135 0 -151 -6 -164 -99 -236 -89 -69 -130 -72 -235 -16
-63 34 -75 45 -113 108 -58 97 -62 149 -16 225 44 73 99 101 200 104 62 1 82
7 133 35 116 63 247 79 347 41 37 -14 77 -20 131 -20 106 0 162 15 188 51 15
22 28 29 53 29 32 0 34 2 40 46 11 81 8 92 -24 109 -16 8 -32 26 -36 39 -3 14
-18 29 -34 36 -17 7 -33 24 -39 40 -5 15 -18 31 -29 34 -11 4 -25 20 -32 36
-7 16 -21 32 -31 35 -11 4 -26 19 -33 34 -21 39 -5 176 24 206 21 23 50 102
50 137 0 11 14 50 30 88 33 74 36 105 18 145 -11 24 -16 26 -47 20 -49 -8 -67
-34 -75 -102 -12 -101 -27 -162 -51 -206 -20 -37 -28 -65 -51 -176 -4 -21 -7
-22 -22 -8 -27 23 -59 37 -120 53 -79 21 -92 35 -92 102 0 43 5 61 21 78 16
18 24 47 35 131 7 59 20 132 29 160 12 41 13 58 5 74 -7 11 -21 91 -31 177
-17 135 -25 167 -54 227 -18 39 -37 88 -40 110 -6 33 -21 53 -81 112 -41 40
-74 79 -74 87 0 30 30 46 85 46 43 0 60 5 84 26 63 52 62 77 -1 119 -36 24
-47 27 -97 21 -142 -16 -209 -18 -229 -7 -38 20 -46 75 -27 176 27 140 29 182
12 209 -9 13 -23 51 -32 85 -14 55 -15 95 -5 344 5 155 10 348 10 430 l0 147
-41 45 c-64 69 -172 87 -259 43z m-798 -5811 c14 -30 14 -34 -9 -69 l-25 -37
-30 34 c-32 37 -32 57 2 93 25 26 42 21 62 -21z m1304 7 c6 -34 -11 -114 -25
-114 -3 0 -16 18 -29 40 -21 37 -21 42 -8 75 21 49 53 48 62 -1z m938 20 c10
-26 7 -79 -6 -92 -15 -15 -48 12 -48 39 0 52 39 91 54 53z m-1904 -54 c0 -19
-11 -26 -23 -14 -8 8 3 34 14 34 5 0 9 -9 9 -20z"/>
<path d="M5115 5448 c-11 -6 -21 -12 -23 -13 -5 -5 29 -114 37 -119 12 -8 78
13 90 28 21 25 -41 115 -79 115 -3 0 -14 -5 -25 -11z"/>
<path d="M5342 5433 c-19 -35 -24 -83 -12 -98 25 -30 58 -18 90 33 16 26 30
52 30 58 0 29 -94 34 -108 7z"/>
<path d="M4840 5370 c-19 -10 -63 -33 -97 -49 -34 -17 -65 -36 -70 -44 -4 -7
-19 -20 -33 -29 -53 -33 -260 -249 -260 -270 0 -7 -15 -35 -34 -61 -19 -27
-38 -63 -42 -80 -4 -18 -19 -57 -35 -87 -59 -114 -67 -477 -13 -581 26 -50
118 -141 168 -166 95 -46 172 -88 197 -106 13 -10 47 -24 76 -33 28 -8 54 -21
57 -29 3 -8 15 -15 26 -15 26 0 26 28 -1 88 -26 57 -38 144 -39 277 0 132 15
221 45 265 13 19 30 51 36 70 13 38 53 89 126 161 51 51 63 52 124 8 29 -21
164 -59 208 -59 45 0 175 40 197 61 13 12 35 19 60 19 36 0 44 -5 75 -46 19
-26 45 -65 58 -88 13 -22 34 -57 48 -77 17 -26 31 -75 49 -174 l25 -139 -21
-122 c-27 -154 -25 -178 14 -182 19 -3 37 4 55 21 14 13 42 30 61 37 19 8 51
26 70 42 19 15 39 28 45 28 6 0 34 18 64 40 29 22 58 40 64 40 6 0 33 23 60
52 57 59 74 106 83 238 9 110 -19 319 -48 370 -11 19 -29 59 -39 87 -10 29
-29 68 -43 86 -14 18 -29 42 -33 54 -4 12 -24 41 -43 64 -47 56 -192 199 -202
199 -4 0 -25 15 -45 33 -21 18 -59 41 -84 51 -26 9 -55 26 -64 36 -13 15 -31
20 -65 20 -40 0 -51 -5 -80 -35 -19 -19 -39 -35 -46 -35 -6 0 -17 -6 -23 -13
-8 -10 -4 -20 19 -42 53 -51 77 -178 47 -248 -26 -61 -130 -117 -231 -124
-147 -11 -242 30 -305 132 -44 72 -41 105 14 189 25 38 45 72 45 76 0 3 -15
20 -32 36 -86 80 -123 91 -188 54z"/>
<path d="M1641 4209 c-22 -9 -23 -11 -9 -25 22 -22 144 -22 166 -1 13 14 10
17 -24 26 -47 13 -100 13 -133 0z"/>
<path d="M2231 4208 c-31 -8 -32 -11 -18 -25 22 -22 142 -23 164 0 15 15 14
17 -11 27 -33 12 -89 12 -135 -2z"/>
<path d="M5635 4120 c-3 -5 1 -10 9 -10 9 0 16 5 16 10 0 6 -4 10 -9 10 -6 0
-13 -4 -16 -10z"/>
<path d="M4953 4063 c-21 -8 -15 -20 16 -31 33 -12 70 6 57 26 -7 12 -50 15
-73 5z"/>
<path d="M5493 4048 c2 -7 11 -13 20 -12 10 0 31 1 47 2 51 3 33 22 -21 22
-36 0 -49 -4 -46 -12z"/>
<path d="M4868 3635 c-26 -7 -59 -23 -75 -35 -15 -12 -43 -28 -61 -35 -62 -26
-240 -191 -287 -265 -13 -21 -29 -41 -34 -44 -5 -4 -21 -30 -35 -59 -25 -51
-53 -94 -97 -150 -11 -15 -30 -51 -41 -79 -11 -29 -28 -65 -39 -80 -11 -15
-29 -72 -40 -126 -11 -53 -26 -117 -34 -142 -14 -43 -26 -171 -41 -415 -3 -60
-12 -148 -19 -195 -38 -235 -44 -286 -50 -420 -4 -80 -11 -169 -15 -197 -9
-53 1 -147 21 -211 6 -18 28 -53 50 -78 55 -64 50 -95 -18 -113 -24 -7 -28
-13 -29 -47 -1 -22 -9 -54 -18 -71 -12 -24 -16 -60 -16 -145 0 -106 1 -114 23
-128 22 -15 40 -17 408 -35 l145 -8 27 32 c26 31 27 38 27 138 0 58 -5 123
-11 144 -9 30 -9 42 1 54 15 19 29 19 54 0 19 -14 19 -16 3 -50 -13 -27 -17
-63 -17 -150 l0 -114 31 -17 c25 -13 50 -15 123 -10 50 4 102 6 116 6 14 -1
90 -3 169 -6 97 -3 153 -1 172 6 24 10 32 9 58 -9 24 -17 44 -21 114 -21 71 0
89 3 111 21 25 19 31 20 71 9 30 -8 83 -10 172 -6 147 7 145 7 278 0 83 -5
105 -3 133 12 l32 17 0 112 c0 80 -5 124 -16 150 -14 34 -14 39 0 54 15 14 17
14 32 -1 14 -14 15 -22 5 -49 -6 -17 -11 -85 -11 -150 l0 -117 32 -27 c31 -26
31 -26 162 -21 281 12 309 16 334 39 23 21 23 26 19 142 -3 66 -11 147 -19
180 l-15 60 -159 7 c-145 7 -161 10 -176 29 -24 28 -23 33 11 71 40 47 49 67
66 149 13 60 14 95 5 194 -5 66 -14 193 -20 283 -6 89 -19 213 -30 275 -11 62
-24 175 -30 252 -22 299 -30 373 -48 426 -11 30 -25 85 -32 122 -7 37 -23 84
-37 104 -13 20 -33 60 -44 89 -11 28 -26 55 -34 58 -8 3 -23 22 -34 44 -11 21
-27 45 -37 53 -9 7 -25 34 -36 58 -10 24 -32 59 -48 78 -17 18 -30 37 -30 42
0 10 -144 154 -202 202 -24 19 -58 41 -76 47 -19 6 -47 23 -63 36 -30 25 -106
43 -135 32 -24 -9 -12 -39 22 -56 37 -18 171 -155 180 -184 4 -11 17 -33 29
-48 31 -36 51 -167 36 -226 -7 -23 -16 -42 -22 -42 -13 0 -119 -112 -119 -127
0 -6 9 -14 19 -18 32 -10 108 -87 129 -131 11 -22 27 -46 36 -53 8 -7 23 -36
32 -64 9 -29 29 -74 44 -102 15 -27 33 -72 39 -99 7 -27 19 -63 28 -80 9 -17
27 -74 39 -126 12 -52 29 -115 38 -138 9 -24 23 -108 30 -185 8 -78 21 -158
29 -177 31 -72 48 -523 26 -661 -12 -67 -13 -69 -47 -79 -23 -6 -40 -6 -47 0
-17 14 -4 75 26 125 21 36 23 50 22 153 -1 94 -5 120 -23 155 -16 31 -24 71
-30 153 -8 112 -17 141 -50 179 -10 11 -28 57 -39 102 -11 45 -31 103 -44 130
-14 26 -30 82 -37 123 -7 41 -23 96 -35 121 -13 25 -31 74 -40 110 -9 35 -25
78 -35 95 -10 17 -25 57 -34 87 -9 31 -27 69 -41 85 -14 16 -30 47 -37 67 -14
42 -37 61 -62 52 -12 -5 -16 -20 -16 -69 -1 -94 -14 -136 -56 -179 -49 -50
-119 -74 -183 -64 -63 11 -176 11 -234 1 -73 -13 -142 12 -193 72 -40 46 -42
51 -46 131 -5 86 -14 105 -43 99 -19 -3 -25 -12 -50 -68 -8 -19 -26 -50 -40
-69 -14 -19 -25 -44 -25 -56 0 -13 -14 -49 -31 -81 -16 -32 -36 -85 -44 -117
-7 -32 -23 -76 -34 -98 -12 -22 -30 -80 -41 -129 -10 -50 -30 -109 -44 -133
-14 -23 -32 -75 -41 -115 -11 -53 -22 -79 -40 -95 -21 -18 -27 -36 -35 -97 -5
-41 -10 -104 -10 -140 0 -48 -6 -77 -22 -105 -18 -34 -21 -57 -22 -151 -1 -97
2 -115 18 -133 23 -25 40 -119 25 -137 -13 -16 -76 2 -84 24 -3 9 -11 62 -17
119 -9 78 -8 158 0 321 11 197 14 220 34 247 19 25 23 49 30 165 5 83 16 160
28 201 11 37 26 101 34 142 8 41 24 93 35 114 11 22 27 68 36 104 9 35 25 78
36 95 11 18 28 57 38 87 11 30 33 74 50 97 17 24 31 47 31 52 0 16 74 99 108
119 37 24 39 32 15 57 -10 9 -26 30 -36 45 -10 15 -29 32 -42 37 -39 15 -48
45 -42 136 3 61 10 92 26 116 11 18 27 47 35 63 20 41 153 179 194 199 17 9
32 20 32 25 0 8 -34 42 -41 40 -2 0 -25 -7 -51 -14z m425 -2747 l-10 -23 -12
24 c-11 19 -11 25 0 32 21 13 34 -7 22 -33z m-353 23 c0 -14 -18 -23 -30 -16
-6 4 -8 11 -5 16 8 12 35 12 35 0z m670 0 c0 -5 -7 -14 -16 -22 -13 -10 -17
-10 -25 2 -14 23 -11 29 16 29 14 0 25 -4 25 -9z m350 5 c0 -2 -3 -12 -6 -20
-5 -13 -9 -14 -20 -5 -20 16 -17 29 6 29 11 0 20 -2 20 -4z"/>
<path d="M713 3173 c-13 -2 -23 -11 -23 -19 0 -20 14 -18 35 6 10 11 16 19 14
19 -2 -1 -14 -4 -26 -6z"/>
<path d="M4915 2800 c3 -5 8 -10 11 -10 2 0 4 5 4 10 0 6 -5 10 -11 10 -5 0
-7 -4 -4 -10z"/>
</g>
</svg>
